<?xml version="1.0" standalone="no"?>
<!DOCTYPE svg PUBLIC "-//W3C//DTD SVG 20010904//EN"
 "http://www.w3.org/TR/2001/REC-SVG-20010904/DTD/svg10.dtd">
<svg version="1.0" xmlns="http://www.w3.org/2000/svg"
 width="512.000000pt" height="512.000000pt" viewBox="0 0 512.000000 512.000000"
 preserveAspectRatio="xMidYMid meet">

<g transform="translate(0.000000,512.000000) scale(0.100000,-0.100000)"
fill="#000000" stroke="none">
<path d="M1830 5114 c-514 -63 -902 -246 -1240 -584 -304 -304 -491 -669 -567
-1105 -24 -139 -24 -471 0 -610 76 -436 263 -801 567 -1105 304 -304 669 -491
1105 -567 139 -24 471 -24 610 0 275 48 530 142 733 270 l64 40 691 -691 c746
-744 729 -729 861 -753 265 -49 506 192 457 457 -24 132 -9 115 -753 861
l-691 691 40 64 c128 203 222 458 270 733 24 139 24 471 0 610 -76 436 -263
801 -567 1105 -302 303 -674 494 -1100 565 -91 16 -407 28 -480 19z m440 -220
c384 -59 724 -231 998 -506 312 -311 487 -696 522 -1148 42 -541 -181 -1088
-597 -1461 -103 -93 -290 -218 -417 -278 -687 -329 -1505 -189 -2044 351 -343
342 -524 781 -524 1268 0 487 181 926 524 1268 235 236 529 401 843 475 243
57 461 67 695 31z m1424 -3183 l139 -140 -69 -73 c-38 -41 -102 -105 -142
-143 l-73 -69 -141 141 -140 140 138 141 c77 77 141 141 144 141 3 1 68 -62
144 -138z m743 -753 c414 -416 463 -468 473 -507 43 -163 -133 -304 -280 -226
-14 8 -229 218 -478 467 l-453 454 133 136 c73 74 135 136 138 137 3 0 213
-207 467 -461z"/>
<path d="M1769 4705 c-248 -40 -447 -117 -649 -250 -358 -236 -599 -593 -692
-1025 -19 -90 -22 -135 -22 -310 0 -231 14 -325 81 -520 157 -461 532 -836
993 -993 195 -67 289 -81 520 -81 231 0 325 14 520 81 461 157 836 532 993
993 67 195 81 289 81 520 0 175 -3 220 -22 310 -47 215 -121 394 -237 570
-235 356 -595 600 -1020 690 -131 28 -419 36 -546 15z m503 -215 c280 -57 510
-181 714 -384 203 -203 324 -429 385 -716 18 -84 22 -137 22 -270 0 -133 -4
-186 -22 -270 -61 -287 -182 -513 -385 -716 -203 -203 -429 -324 -716 -385
-149 -32 -391 -32 -540 0 -287 61 -513 182 -716 385 -203 203 -324 429 -385
716 -32 149 -32 391 0 540 61 287 182 513 385 716 229 228 505 363 828 404
108 13 311 4 430 -20z"/>
<path d="M1951 4307 c-47 -28 -63 -85 -37 -136 18 -34 54 -51 109 -51 67 0
216 -27 292 -53 263 -90 465 -270 590 -529 39 -80 54 -100 82 -113 65 -31 137
16 137 91 0 20 -21 75 -52 138 -192 386 -576 640 -1002 662 -71 4 -101 1 -119
-9z"/>
<path d="M3051 3206 c-87 -48 -50 -186 49 -186 51 0 100 49 100 99 0 75 -83
124 -149 87z"/>
</g>
</svg>
